# xmcd
#
# Track frame offsets:
#	150
#	18295
#	33080
#	47946
#	72447
#	88683
#	112150
#	129749
#	157569
#	174788
#	195047
#	213324
#	232365
#	246792
#
# Disc length: 3535 seconds
#
# Revision: 1
# Processed by: cddbd v1.5.2PL0 Copyright (c) Steve Scherf et al.
# Submitted via: audiograbber 1.83.01
#
DISCID=b30dcd0e
DTITLE=Various Artist - Cornbread's Adopt-A-Soldier Benefit CD (WIL Radio)
DYEAR=2008
DGENRE=Country
TTITLE0=WIL - Adopt A Soldier Promo Track
TTITLE1=Toby Keith - Courtesy Of The Red, White And Blue
TTITLE2=Colin Raye - A Soldier's Prayer
TTITLE3=Darryl Worley - I Just Came Back From A War
TTITLE4=Tim McGraw - My Old Friend
TTITLE5=Keith Urban f Ronnie Dunn - Raise The Barn
TTITLE6=Sugarland - Everyday America
TTITLE7=Big and Rich - 8th Of November
TTITLE8=Aaron Tippin - Where The Star And Stripes And The Eagle Fly
TTITLE9=John Michael Montgomery - Letters From Home
TTITLE10=Travis Tritt - It's A Great Day To Be Alive
TTITLE11=Tim McGraw - If You're Reading This
TTITLE12=Lee Greenwood - God Bless The USA
TTITLE13=Darryl Worley - Have You Forgotten
EXTD=
EXTT0=
EXTT1=
EXTT2=
EXTT3=
EXTT4=
EXTT5=
EXTT6=
EXTT7=
EXTT8=
EXTT9=
EXTT10=
EXTT11=
EXTT12=
EXTT13=
PLAYORDER=
